<svg width="200" height="40" viewBox="0 0 200 40" fill="none" xmlns="http://www.w3.org/2000/svg">
<path d="M5.71429 4.57585V8.1949H13.3571C15.1429 8.1949 15.5714 7.76633 15.5714 6.36157C15.5714 4.98061 15.1667 4.57585 13.3571 4.57585H5.71429ZM5.71429 17.0759H1.19048V0.409184H13.8333C18.2857 0.409184 20.5714 2.40918 20.5714 6.31395C20.5714 10.2663 18.2381 12.3616 13.8333 12.3616H5.71429V17.0759ZM30.4384 4.00442H30.1289L29.8908 5.00442L27.5575 10.1711H33.0099L30.6765 5.00442L30.4384 4.00442ZM24.4146 17.0759H19.1527L26.867 0.409184H33.7003L41.3908 17.0759H36.1289L34.7956 14.0997H25.7718L24.4146 17.0759ZM46.4133 17.0759V4.57585H39.0086V0.409184H58.3419V4.57585H50.9371V17.0759H46.4133ZM60.5934 17.0759V0.409184H65.1172V17.0759H60.5934ZM68.0943 17.0759V0.409184H85.8324V4.21871H72.38V6.88537H85.0705V10.6949H72.38V13.2663H85.9276V17.0759H68.0943ZM108.216 17.0759H100.859L93.5015 5.48061L93.0729 4.00442L92.692 4.07585L92.9539 5.64728V17.0759H88.4301V0.409184H95.6205L102.954 11.9568L103.573 13.4806L103.954 13.4092L103.692 11.8378V0.409184H108.216V17.0759ZM117.874 17.0759V4.57585H110.47V0.409184H129.803V4.57585H122.398V17.0759H117.874ZM17.9286 32.5044H20.9048C20.9286 36.7663 17.3333 39.3139 11.1667 39.3139C4.30952 39.3139 0.833333 36.1473 0.833333 30.8139C0.833333 25.1949 4.66667 22.1473 11.3095 22.1473C17.4286 22.1473 20.9048 24.7187 20.9048 29.0759H17.8571C17.7143 26.052 15.8333 24.8139 11.3571 24.8139C6.07143 24.8139 3.92857 26.4092 3.92857 30.8139C3.92857 34.7187 5.66667 36.6473 11.119 36.6473C15.6905 36.6473 17.9286 35.2187 17.9286 32.5044ZM22.9594 30.7425C22.9594 25.4092 26.6975 22.1711 33.5309 22.1711C40.3642 22.1711 44.1023 25.3854 44.1023 30.7425C44.1023 36.0759 40.388 39.3139 33.5309 39.3139C26.6975 39.3139 22.9594 36.0759 22.9594 30.7425ZM26.0785 30.7425C26.0785 34.6711 28.3404 36.6473 33.5309 36.6473C38.7214 36.6473 41.0071 34.7663 41.0071 30.7425C41.0071 26.7187 38.8642 24.8378 33.5309 24.8378C28.1975 24.8378 26.0785 26.7187 26.0785 30.7425ZM66.1734 39.0759H60.6257L52.0543 26.3616L51.1972 24.7187L50.0543 24.7663L50.1972 26.6711V39.0759H47.34V22.4092H52.7924L61.5781 35.4092L62.3162 36.7663L63.4829 36.7187L63.3162 35.1235V22.4092H66.1734V39.0759ZM89.183 39.0759H83.6354L75.064 26.3616L74.2068 24.7187L73.064 24.7663L73.2068 26.6711V39.0759H70.3497V22.4092H75.8021L84.5878 35.4092L85.3259 36.7663L86.4926 36.7187L86.3259 35.1235V22.4092H89.183V39.0759ZM93.3594 39.0759V22.3854H110.407V24.8378H96.0975V29.5282H109.645V31.9806H96.0975V36.6235H110.502V39.0759H93.3594ZM130.117 32.5044H133.093C133.117 36.7663 129.522 39.3139 123.379 39.3139C116.498 39.3139 113.022 36.0997 113.022 30.7663C113.022 25.1711 116.855 22.1473 123.498 22.1473C129.617 22.1473 133.093 24.7187 133.093 29.0759H130.046C129.903 26.1235 128.141 24.8139 123.522 24.8139C117.974 24.8139 116.117 26.5759 116.117 30.7901C116.117 34.6711 117.855 36.6473 123.331 36.6473C127.879 36.6473 130.117 35.2187 130.117 32.5044ZM143.029 39.0759V25.0282H135.053V22.4092H153.862V25.0282H145.886V39.0759H143.029ZM166.519 27.7663H166.709L166.971 27.0997L171.305 22.4092H177.662L169.948 30.4806V30.7187L177.948 39.0759H171.59L166.971 34.0997L166.709 33.5997H166.519L166.257 34.0997L161.638 39.0759H155.281L163.281 30.7187V30.4806L155.567 22.4092H161.924L166.257 27.0997L166.519 27.7663ZM184.374 26.4568V29.8139H192.493C194.136 29.8139 194.565 29.5044 194.565 28.1235C194.565 26.7663 194.16 26.4568 192.493 26.4568H184.374ZM199.85 39.2187H194.184L191.826 34.433C191.493 33.7663 190.85 33.4806 189.684 33.4806H184.374V39.0759H179.85V22.4092H193.041C197.612 22.4092 199.565 23.8139 199.565 27.0997C199.565 30.0044 198.017 31.5282 194.898 31.6711V31.9806C196.088 32.2901 196.85 32.933 197.517 34.3378L199.85 39.2187Z" fill="#383D4B"/>
<rect x="136.118" y="-3.8147e-06" width="7.44048" height="16.6667" rx="2.38095" fill="#07A0CF"/>
<rect x="150.106" y="-3.8147e-06" width="7.44048" height="16.6667" rx="2.38095" fill="#D344B0"/>
<rect x="164.094" y="-3.8147e-06" width="7.44048" height="16.6667" rx="2.38095" fill="#E54F2E"/>
<rect x="177.785" y="-3.8147e-06" width="7.44048" height="16.6667" rx="2.38095" fill="#28A969"/>
<rect x="191.773" y="-3.8147e-06" width="7.44048" height="16.6667" rx="2.38095" fill="#929394"/>
</svg>
